# AST/ASF file generated using VICON BodyLanguage
# -----------------------------------------------
:version 1.10
:name VICON
:units
  mass 1.0
  length 0.45
  angle deg
:documentation
   .ast/.asf automatically generated from VICON data using
   VICON BodyBuilder and BodyLanguage model FoxedUp or BRILLIANT.MOD
:root
   order TX TY TZ RX RY RZ
   axis XYZ
   position 0 0 0  
   orientation 0 0 0 
:bonedata
  begin
     id 1 
     name lhipjoint
     direction 0.630082 -0.636569 0.44472 
     length 2.82754 
     axis 0 0 0  XYZ
  end
  begin
     id 2 
     name lfemur
     direction 0.34202 -0.939693 0  
     length 7.26371  
     axis 0 0 20  XYZ
    dof rx ry rz
    limits (-160.0 20.0)
           (-70.0 70.0)
           (-60.0 70.0)
  end
  begin
     id 3 
     name ltibia
     direction 0.34202 -0.939693 0   
     length 7.88616   
     axis 0 0 20   XYZ
    dof rx
    limits (-10.0 170.0)
  end
  begin
     id 4 
     name lfoot
     direction 0.0603448 -0.165796 0.984312   
     length 1.77861   
     axis -90 7.62852e-016 20   XYZ
    dof rx rz
    limits (-45.0 90.0)
           (-70.0 20.0)
  end
  begin
     id 5 
     name ltoes
     direction 1.53577e-011 -4.21876e-011 1   
     length 0.902235   
     axis -90 7.62852e-016 20   XYZ
    dof rx
    limits (-90.0 20.0)
  end
  begin
     id 6 
     name rhipjoint
     direction -0.656778 -0.61817 0.431866   
     length 2.9117  
     axis 0 0 0  XYZ 
  end
  begin
     id 7 
     name rfemur
     direction -0.34202 -0.939693 0   
     length 6.81603   
     axis 0 0 -20   XYZ
    dof rx ry rz
    limits (-160.0 20.0)
           (-70.0 70.0)
           (-70.0 60.0)
  end
  begin
     id 8 
     name rtibia
     direction -0.34202 -0.939693 0   
     length 8.05997   
     axis 0 0 -20   XYZ
    dof rx
    limits (-10.0 170.0)
 end
 begin
     id 9 
     name rfoot
     direction -0.0862404 -0.236944 0.967688   
     length 1.84899  
     axis -90 -7.62852e-016 -20   XYZ
    dof rx rz
    limits (-45.0 90.0)
           (-20.0 70.0)
  end
  begin
     id 10 
     name rtoes
     direction -1.53561e-011 -4.21798e-011 1   
     length 0.931579   
     axis -90 -7.62852e-016 -20   XYZ
    dof rx
    limits (-90.0 20.0)
  end
  begin
     id 11 
     name lowerback
     direction -0.0110203 0.991769 -0.127564   
     length 2.05686   
     axis 0 0 0   XYZ
    dof rx ry rz
    limits (-20.0 45.0)
           (-30.0 30.0)
           (-30.0 30.0)
  end
  begin
     id 12 
     name upperback
     direction 0.0109719 0.99993 -0.00432479   
     length 2.06234   
     axis 0 0 0   XYZ
    dof rx ry rz
    limits (-20.0 45.0)
           (-30.0 30.0)
           (-30.0 30.0)
  end
  begin
     id 13 
     name thorax
     direction 0.0173308 0.998351 0.0547306   
     length 2.09856   
     axis 0 0 0   XYZ
    dof rx ry rz
    limits (-20.0 45.0)
           (-30.0 30.0)
           (-30.0 30.0)
  end
  begin
     id 14 
     name lowerneck
     direction -0.0311736 0.989033 0.144366   
     length 1.98151   
     axis 0 0 0   XYZ
    dof rx ry rz
    limits (-20.0 45.0)
           (-30.0 30.0)
           (-30.0 30.0)
  end
  begin
     id 15 
     name upperneck
     direction 0.0421057 0.975772 -0.214698   
     length 2.01457   
     axis 0 0 0   XYZ
    dof rx ry rz
    limits (-20.0 45.0)
           (-30.0 30.0)
           (-30.0 30.0)
  end
  begin
     id 16
     name head
     direction 0.0136911 0.995958 -0.0887718  
     length 2.03562  
     axis 0 0 0   XYZ
    dof rx ry rz
    limits (-20.0 45.0)
           (-30.0 30.0)
           (-30.0 30.0)
  end
  begin
     id 17 
     name lclavicle
     direction 0.915335 0.396201 0.0720134  
     length 4.16217  
     axis 0 0 0   XYZ
    dof ry rz
    limits (-20.0 10.0)
           (0.0 20.0)
  end
  begin
     id 18 
     name lhumerus
     direction 1 -4.48965e-011 6.383e-018   
     length 4.93042   
     axis -180 -30 -90   XYZ
    dof rx ry rz
    limits (-60.0 90.0)
           (-90.0 90.0)
           (-90.0 90.0)
  end
  begin
     id 19
     name lradius
     direction 1 -4.48972e-011 8.8689e-027   
     length 3.68177   
     axis -180 -30 -90   XYZ
    dof rx
    limits (-10.0 170.0)
  end
  begin
     id 20
     name lwrist
     direction 1 -4.48953e-011 1.17971e-026   
     length 1.84089   
     axis -7.69454e-015 90 90   XYZ
    dof ry
    limits (-180.0 0.0)
 end
  begin
     id 21 
     name lhand
     direction 1 -4.49027e-011 2.35802e-026   
     length 0.721479   
     axis -1.50533e-014 90 90   XYZ
    dof rx rz
    limits (-90.0 90.0)
           (-45.0 45.0)
  end
  begin
     id 22 
     name lfingers
     direction 1 -4.48915e-011 4.72027e-026   
     length 0.581675   
     axis -3.01059e-014 90 90   XYZ
    dof rx
    limits (0.0 90.0)
  end
  begin
     id 23
     name lthumb
     direction 0.707107 -6.34948e-011 0.707107   
     length 0.835172   
     axis -90 45 -5.12164e-014   XYZ
    dof rx rz
    limits (-45.0 45.0)
           (-45.0 45.0)
  end
  begin
     id 24 
     name rclavicle
     direction -0.882781 0.469197 0.0234974   
     length 3.95647  
     axis 0 0 0   XYZ 
    dof ry rz
    limits (-10.0 20.0)
           (-20.0 0.0)
  end
  begin
     id 25 
     name rhumerus
     direction -1 -4.48965e-011 -1.54906e-018  
     length 5.07905   
     axis -180 30 90   XYZ
    dof rx ry rz
    limits (-90.0 60.0)
           (-90.0 90.0)
           (-90.0 90.0)
  end
  begin
     id 26 
     name rradius
     direction -1 -4.48972e-011 5.47489e-027   
     length 3.54394   
     axis -180 30 90   XYZ
    dof rx
    limits (-10.0 170.0)
  end
  begin
     id 27 
     name rwrist
     direction -1 -4.48955e-011 1.17969e-026   
     length 1.77197   
     axis -7.69454e-015 -90 -90   XYZ
    dof ry
    limits (-180.0 0.0)
  end
  begin
     id 28
     name rhand
     direction -1 -4.48982e-011 2.35888e-026   
     length 0.681156   
     axis -1.50533e-014 -90 -90   XYZ
    dof rx rz
    limits (-90.0 90.0)
           (-45.0 45.0)
  end
  begin
     id 29
     name rfingers
     direction -1 -4.48955e-011 4.71877e-026   
     length 0.549165   
     axis -3.01059e-014 -90 -90   XYZ
    dof rx
    limits (0.0 90.0)
  end
  begin
     id 30
     name rthumb
     direction -0.707107 -6.3491e-011 0.707107   
     length 0.788495   
     axis -90 -45 5.12164e-014   XYZ
    dof rx rz
    limits (-45.0 45.0)
           (-45.0 45.0)
  end
:hierarchy
  begin
    root lhipjoint rhipjoint lowerback
    lhipjoint lfemur
    lfemur ltibia
    ltibia lfoot
    lfoot ltoes
    rhipjoint rfemur
    rfemur rtibia
    rtibia rfoot
    rfoot rtoes
    lowerback upperback
    upperback thorax
    thorax lowerneck lclavicle rclavicle
    lowerneck upperneck
    upperneck head
    lclavicle lhumerus
    lhumerus lradius
    lradius lwrist
    lwrist lhand lthumb
    lhand lfingers
    rclavicle rhumerus
    rhumerus rradius
    rradius rwrist
    rwrist rhand rthumb
    rhand rfingers
  end

#!OML:ASF H:\Bending\Project 1\Capture day 1\Session 1\Subject.ASF
:FULLY-SPECIFIED
:DEGREES
161
root -9.67124 17.9806 -16.5122 202.654 87.271 199.898
lowerback 7.03168 -1.40019 0.182111
upperback -0.245564 -1.70155 2.7297
thorax -4.12159 -0.805494 2.90482
lowerneck -20.4676 -4.11532 -7.72743
upperneck 23.6272 -4.29885 4.45684
head 11.3535 -2.01607 2.26235
rclavicle -2.71341e-014 1.51076e-014
rhumerus -36.0906 21.7175 -94.1315
rradius 75.2319
rwrist 1.42982
rhand -31.6888 -42.285
rfingers 7.12502
rthumb -4.94822 -72.2072
lclavicle -2.71341e-014 1.51076e-014
lhumerus -39.0972 -33.8472 105.014
lradius 78.7878
lwrist 47.3798
lhand -30.5703 18.4709
lfingers 7.12502
lthumb -3.86819 48.4155
rfemur 6.69844 -2.92863 14.2522
rtibia 7.95139e-015
rfoot -10.077 -17.5254
rtoes 9.6062
lfemur -7.94675 -13.4207 -12.354
ltibia 22.3717
lfoot -19.2079 7.19744
ltoes -15.4045
162
root -9.64305 17.9705 -16.5075 201.451 87.2858 198.935
lowerback 6.62774 -1.3582 0.212017
upperback -0.419799 -1.65122 2.68895
thorax -4.07963 -0.78238 2.83153
lowerneck -21.1007 -4.15536 -7.73146
upperneck 24.5862 -4.31078 4.45263
head 11.8443 -2.0129 2.26626
rclavicle 1.55052e-014 -4.77083e-015
rhumerus -36.3492 21.0905 -94.1692
rradius 75.8041
rwrist 1.87328
rhand -31.5525 -41.9621
rfingers 7.12502
rthumb -4.81667 -71.8874
lclavicle 1.55052e-014 -4.77083e-015
lhumerus -39.637 -33.5337 105.207
lradius 79.3629
lwrist 47.2419
lhand -30.5853 17.9839
lfingers 7.12502
lthumb -3.8827 47.9283
rfemur 7.08355 -2.90862 14.2018
rtibia 1.43125e-014
rfoot -10.2192 -17.518
rtoes 9.35949
lfemur -7.51677 -13.608 -12.4887
ltibia 22.3136
lfoot -19.3921 7.33228
ltoes -15.6705
163
root -9.61822 17.9624 -16.5029 200.626 87.3281 198.293
lowerback 6.264 -1.29701 0.259183
upperback -0.60252 -1.57286 2.64306
thorax -4.07059 -0.745267 2.74252
lowerneck -21.7799 -4.18533 -7.69999
upperneck 25.5394 -4.30406 4.40579
head 12.3491 -2.00312 2.25195
rclavicle 8.84592e-015 -1.27222e-014
rhumerus -36.6329 20.4032 -94.1856
rradius 76.4436
rwrist 2.3199
rhand -31.5558 -41.7641
rfingers 7.12502
rthumb -4.8198 -71.6893
lclavicle 8.84592e-015 -1.27222e-014
lhumerus -40.1562 -33.1791 105.331
lradius 79.966
lwrist 47.0938
lhand -30.6361 17.4405
lfingers 7.12502
lthumb -3.93178 47.384
rfemur 7.39441 -2.86192 14.1626
rtibia -3.18055e-015
rfoot -10.3464 -17.505
rtoes 9.08862
lfemur -7.1534 -13.7216 -12.6003
ltibia 22.2517
lfoot -19.5415 7.44596
ltoes -15.9534
164
root -9.5964 17.9554 -16.4982 200.52 87.3782 198.331
lowerback 5.94059 -1.22949 0.322968
upperback -0.789347 -1.48266 2.61188
thorax -4.08861 -0.701951 2.66031
lowerneck -22.4219 -4.18589 -7.62932
upperneck 26.3943 -4.25262 4.29919
head 12.812 -1.97863 2.21557
rclavicle -1.49089e-015 -4.21423e-014
rhumerus -36.9775 19.7704 -94.1812
rradius 77.1859
rwrist 2.67259
rhand -31.7026 -41.7218
rfingers 7.12502
rthumb -4.96155 -71.6437
lclavicle -1.49089e-015 -4.21423e-014
lhumerus -40.6302 -32.7807 105.414
lradius 80.558
lwrist 46.9621
lhand -30.8837 16.8392
lfingers 7.12502
lthumb -4.17088 46.7781
rfemur 7.65049 -2.80083 14.1575
rtibia -6.36111e-015
rfoot -10.5035 -17.4856
rtoes 9.06641
lfemur -6.86163 -13.7945 -12.6646
ltibia 22.2159
lfoot -19.6715 7.54339
ltoes -16.1874
165
root -9.57735 17.9489 -16.4935 201.186 87.4295 199.105
lowerback 5.64462 -1.16394 0.398564
upperback -0.972993 -1.39234 2.60002
thorax -4.11818 -0.658282 2.5928
lowerneck -22.9615 -4.14479 -7.51997
upperneck 27.0843 -4.14225 4.1313
head 13.1887 -1.93487 2.15798
rclavicle -1.31695e-015 -2.06736e-014
rhumerus -37.3787 19.2802 -94.1725
rradius 78.0192
rwrist 2.87214
rhand -31.955 -41.8006
rfingers 7.12502
rthumb -5.20524 -71.7167
lclavicle -1.31695e-015 -2.06736e-014
lhumerus -41.0319 -32.3607 105.48
lradius 81.0958
lwrist 46.8742
lhand -31.3932 16.1658
lfingers 7.12502
lthumb -4.66286 46.0945
rfemur 7.86216 -2.73052 14.1882
rtibia -1.59028e-014
rfoot -10.7104 -17.4618
rtoes 9.44844
lfemur -6.63979 -13.8531 -12.6799
ltibia 22.2205
lfoot -19.7994 7.62245
ltoes -16.253
166
root -9.56097 17.9431 -16.4885 202.421 87.4874 200.418
lowerback 5.35419 -1.1023 0.48234
upperback -1.14599 -1.30611 2.59664
thorax -4.13924 -0.616687 2.53029
lowerneck -23.3717 -4.06337 -7.37874
upperneck 27.5913 -3.9798 3.91953
head 13.4632 -1.87373 2.08536
rclavicle -5.73991e-015 3.18055e-015
rhumerus -37.7878 18.9558 -94.1854
rradius 78.8901
rwrist 2.92062
rhand -32.2551 -41.9236
rfingers 7.12502
rthumb -5.49506 -71.8324
lclavicle -5.73991e-015 3.18055e-015
lhumerus -41.3356 -31.9565 105.537
lradius 81.5502
lwrist 46.8496
lhand -32.1135 15.4186
lfingers 7.12502
lthumb -5.35829 45.3308
rfemur 8.02702 -2.64867 14.2411
rtibia 3.18055e-015
rfoot -10.953 -17.4375
rtoes 10.1994
lfemur -6.48134 -13.9008 -12.6603
ltibia 22.2596
lfoot -19.9338 7.67184
ltoes -16.0438
167
root -9.5472 17.9382 -16.4832 203.962 87.5618 202.003
lowerback 5.0508 -1.04172 0.575674
upperback -1.30289 -1.22184 2.58348
thorax -4.13618 -0.57665 2.45228
lowerneck -23.666 -3.95728 -7.21848
upperneck 27.9462 -3.79245 3.69487
head 13.6508 -1.80367 2.00736
rclavicle -1.44119e-015 -7.95139e-016
rhumerus -38.1295 18.7505 -94.2418
rradius 79.7295
rwrist 2.8747
rhand -32.5472 -42.0091
rfingers 7.12502
rthumb -5.77701 -71.9103
lclavicle -1.44119e-015 -7.95139e-016
lhumerus -41.5228 -31.604 105.577
lradius 81.9202
lwrist 46.8916
lhand -32.9157 14.6291
lfingers 7.12502
lthumb -6.13283 44.5203
rfemur 8.13686 -2.55037 14.2984
rtibia 4.77083e-015
rfoot -11.1891 -17.418
rtoes 11.1084
lfemur -6.37564 -13.9186 -12.6245
ltibia 22.3138
lfoot -20.071 7.67597
ltoes -15.5239
168
root -9.53595 17.9346 -16.4775 205.622 87.6568 203.677
lowerback 4.73203 -0.978457 0.681952
upperback -1.4416 -1.1354 2.54681
thorax -4.10586 -0.536513 2.34226
lowerneck -23.887 -3.85082 -7.0575
upperneck 28.2091 -3.61703 3.4918
head 13.7878 -1.73691 1.93457
rclavicle 5.69021e-015 -9.54166e-015
rhumerus -38.3333 18.5789 -94.3443
rradius 80.4838
rwrist 2.81485
rhand -32.7901 -42.0074
rfingers 7.12502
rthumb -6.01155 -71.9021
lclavicle 5.69021e-015 -9.54166e-015
lhumerus -41.5897 -31.3223 105.585
lradius 82.2364
lwrist 46.9853
lhand -33.6675 13.8631
lfingers 7.12502
lthumb -6.85858 43.732
rfemur 8.18928 -2.43493 14.3488
rtibia -1.43125e-014
rfoot -11.3713 -17.4084
rtoes 11.8991
lfemur -6.30878 -13.8788 -12.5856
ltibia 22.3626
lfoot -20.1964 7.62238
ltoes -14.7577
169
root -9.527 17.9325 -16.4716 207.304 87.7651 205.354
lowerback 4.41585 -0.911735 0.799214
upperback -1.56336 -1.04565 2.48626
thorax -4.05956 -0.495587 2.20152
lowerneck -24.0831 -3.76744 -6.91713
upperneck 28.4397 -3.48471 3.33687
head 13.9117 -1.68469 1.87597
rclavicle 8.98258e-015 -1.59028e-014
rhumerus -38.3624 18.3664 -94.4697
rradius 81.1351
rwrist 2.80876
rhand -32.9627 -41.9177
rfingers 7.12502
rthumb -6.17824 -71.8076
lclavicle 8.98258e-015 -1.59028e-014
lhumerus -41.5522 -31.1069 105.548
lradius 82.5522
lwrist 47.1011
lhand -34.2988 13.1985
lfingers 7.12502
lthumb -7.46802 43.0467
rfemur 8.19619 -2.31003 14.3896
rtibia 7.95139e-015
rfoot -11.4713 -17.4105
rtoes 12.363
lfemur -6.26436 -13.7638 -12.5487
ltibia 22.394
lfoot -20.2914 7.51221
ltoes -13.9108
170
root -9.52003 17.9313 -16.4656 208.907 87.8708 206.951
lowerback 4.13346 -0.844818 0.914142
upperback -1.67186 -0.956251 2.41602
thorax -4.0181 -0.45497 2.05332
lowerneck -24.2852 -3.72114 -6.8164
upperneck 28.6721 -3.40926 3.23948
head 14.0447 -1.65326 1.83627
rclavicle -2.17545e-014 4.45278e-014
rhumerus -38.2268 18.0883 -94.5762
rradius 81.7032
rwrist 2.88522
rhand -33.0597 -41.7801
rfingers 7.12502
rthumb -6.27186 -71.6673
lclavicle -2.17545e-014 4.45278e-014
lhumerus -41.4437 -30.9376 105.467
lradius 82.9235
lwrist 47.2033
lhand -34.8275 12.6892
lfingers 7.12502
lthumb -7.9783 42.5186
rfemur 8.18311 -2.19019 14.4232
rtibia -7.95139e-015
rfoot -11.4949 -17.4193
rtoes 12.4505
lfemur -6.22541 -13.5805 -12.5148
ltibia 22.4066
lfoot -20.3427 7.36343
ltoes -13.1902
171
root -9.51462 17.9302 -16.4597 210.237 87.9579 208.289
lowerback 3.91432 -0.78372 1.00233
upperback -1.77205 -0.874568 2.3578
thorax -4.00245 -0.417232 1.93487
lowerneck -24.4967 -3.7124 -6.76684
upperneck 28.9069 -3.38404 3.19205
head 14.1872 -1.64201 1.81565
rclavicle -7.3364e-015 4.21423e-014
rhumerus -37.9748 17.7806 -94.6194
rradius 82.2295
rwrist 3.03102
rhand -33.0825 -41.6465
rfingers 7.12502
rthumb -6.29383 -71.533
lclavicle -7.3364e-015 4.21423e-014
lhumerus -41.3048 -30.7914 105.359
lradius 83.3869
lwrist 47.2623
lhand -35.3292 12.3408
lfingers 7.12502
lthumb -8.46247 42.1513
rfemur 8.17958 -2.0907 14.4503
rtibia 2.8625e-014
rfoot -11.478 -17.4257
rtoes 12.271
lfemur -6.17745 -13.3614 -12.4864
ltibia 22.4061
lfoot -20.3494 7.20797
ltoes -12.7646
172
root -9.51033 17.9285 -16.454 211.049 88.0196 209.132
lowerback 3.77156 -0.733915 1.0378
upperback -1.86895 -0.807732 2.3302
thorax -4.02471 -0.384884 1.88047
lowerneck -24.6986 -3.72993 -6.76765
upperneck 29.1228 -3.38795 3.17591
head 14.3244 -1.64459 1.81032
rclavicle 8.52445e-015 1.59028e-015
rhumerus -37.6674 17.5173 -94.5717
rradius 82.7529
rwrist 3.20828
rhand -33.0299 -41.5486
rfingers 7.12502
rthumb -6.24303 -71.4366
lclavicle 8.52445e-015 1.59028e-015
lhumerus -41.1674 -30.6551 105.243
lradius 83.9438
lwrist 47.2655
lhand -35.8756 12.1135
lfingers 7.12502
lthumb -8.9898 41.9019
rfemur 8.20612 -2.0203 14.4677
rtibia 1.74931e-014
rfoot -11.4645 -17.422
rtoes 12.0123
lfemur -6.11194 -13.155 -12.4701
ltibia 22.398
lfoot -20.3245 7.08252
ltoes -12.6936
173
root -9.50672 17.9259 -16.4485 211.196 88.0602 209.331
lowerback 3.69539 -0.697638 1.00601
upperback -1.96645 -0.759146 2.33983
thorax -4.08339 -0.359041 1.90495
lowerneck -24.8661 -3.75693 -6.80375
upperneck 29.2977 -3.39709 3.17001
head 14.4384 -1.6523 1.8137
rclavicle 9.69075e-015 -2.06736e-014
rhumerus -37.3507 17.3675 -94.4339
rradius 83.2935
rwrist 3.38251
rhand -32.8963 -41.4843
rfingers 7.12502
rthumb -6.11413 -71.3761
lclavicle 9.69075e-015 -2.06736e-014
lhumerus -41.0404 -30.5289 105.134
lradius 84.5591
lwrist 47.2201
lhand -36.481 11.9523
lfingers 7.12502
lthumb -9.57387 41.7148
rfemur 8.26568 -1.97779 14.4709
rtibia -1.74931e-014
rfoot -11.4841 -17.4071
rtoes 11.8354
lfemur -6.02843 -13.0091 -12.4728
ltibia 22.3838
lfoot -20.2899 7.0189
ltoes -12.914
174
root -9.50345 17.9228 -16.4433 210.787 88.0884 208.98
lowerback 3.65739 -0.673492 0.915078
upperback -2.06631 -0.727456 2.37925
thorax -4.16474 -0.339241 1.99538
lowerneck -24.9846 -3.77878 -6.85022
upperneck 29.4246 -3.39638 3.15981
head 14.521 -1.65803 1.81861
rclavicle -2.57178e-015 -1.59028e-015
rhumerus -37.0423 17.358 -94.2361
rradius 83.8513
rwrist 3.54349
rhand -32.6787 -41.427
rfingers 7.12502
rthumb -5.904 -71.3247
lclavicle -2.57178e-015 -1.59028e-015
lhumerus -40.9045 -30.4199 105.031
lradius 85.174
lwrist 47.147
lhand -37.087 11.8202
lfingers 7.12502
lthumb -10.1586 41.5549
rfemur 8.34421 -1.95456 14.461
rtibia 9.54166e-015
rfoot -11.5379 -17.3873
rtoes 11.795
lfemur -5.93425 -12.9575 -12.4952
ltibia 22.3615
lfoot -20.2682 7.03579
ltoes -13.2806
175
root -9.5002 17.9201 -16.4383 210.164 88.1097 208.406
lowerback 3.62286 -0.65787 0.796024
upperback -2.1674 -0.707843 2.4314
thorax -4.24871 -0.324162 2.11579
lowerneck -25.0565 -3.78935 -6.88157
upperneck 29.5155 -3.38591 3.14113
head 14.5766 -1.65938 1.8192
rclavicle -1.0312e-015 1.11319e-014
rhumerus -36.7345 17.4587 -94.0244
rradius 84.4164
rwrist 3.70613
rhand -32.3913 -41.3507
rfingers 7.12502
rthumb -5.62651 -71.256
lclavicle -1.0312e-015 1.11319e-014
lhumerus -40.7202 -30.3341 104.919
lradius 85.7286
lwrist 47.0677
lhand -37.6017 11.7147
lfingers 7.12502
lthumb -10.6551 41.4245
rfemur 8.42012 -1.9417 14.4481
rtibia -7.95139e-015
rfoot -11.6022 -17.3738
rtoes 11.8294
lfemur -5.84144 -13.0124 -12.5284
ltibia 22.33
lfoot -20.2756 7.13433
ltoes -13.6381
